<svg width="196" height="193" viewBox="0 0 196 193" fill="none" xmlns="http://www.w3.org/2000/svg">
<g clip-path="url(#clip0_3033_23)">
<path d="M81.8209 13.3935C85.4109 -4.22604 110.589 -4.22604 114.179 13.3935C116.64 25.47 130.985 30.6911 140.633 23.0219C154.709 11.8325 173.996 28.0161 165.421 43.8211C159.543 54.6541 167.176 67.8751 179.497 68.2011C197.472 68.6781 201.844 93.472 185.116 100.068C173.65 104.589 170.999 119.622 180.227 127.792C193.691 139.711 181.102 161.515 164.048 155.815C152.359 151.908 140.665 161.72 142.483 173.91C145.135 191.695 121.476 200.306 112.076 184.978C105.633 174.471 90.3669 174.471 83.9239 184.978C74.5239 200.306 50.8649 191.695 53.5169 173.91C55.3349 161.72 43.6409 151.908 31.952 155.815C14.8978 161.515 2.30925 139.711 15.7728 127.792C25.0009 119.622 22.35 104.589 10.8844 100.068C-5.84396 93.472 -1.47195 68.6781 16.5033 68.2011C28.8237 67.8751 36.4569 54.6541 30.5791 43.8211C22.004 28.0161 41.2909 11.8325 55.3669 23.0219C65.0149 30.6911 79.3599 25.47 81.8209 13.3935Z" fill="#FF7722"/>
<path d="M91 106L105 92" stroke="white" stroke-width="4" stroke-linecap="round" stroke-linejoin="round"/>
<path d="M92.167 92H105V104.833" stroke="white" stroke-width="4" stroke-linecap="round" stroke-linejoin="round"/>
<path d="M93.7871 160.42L95.3411 160.47C95.3631 160.672 95.4151 160.853 95.4981 161.012C95.5801 161.173 95.6881 161.312 95.8221 161.427C95.9561 161.543 96.1121 161.633 96.2901 161.698C96.4651 161.763 96.6571 161.799 96.8651 161.805C97.2421 161.817 97.5721 161.734 97.8571 161.556C98.1431 161.381 98.3681 161.118 98.5331 160.768C98.6981 160.42 98.7891 159.994 98.8051 159.49C98.8211 158.972 98.7581 158.534 98.6161 158.177C98.4711 157.819 98.2621 157.546 97.9881 157.357C97.7151 157.169 97.3951 157.068 97.0281 157.057C96.8221 157.05 96.6311 157.071 96.4541 157.12C96.2751 157.169 96.1151 157.243 95.9741 157.343C95.8341 157.445 95.7161 157.57 95.6211 157.719C95.5241 157.867 95.4551 158.038 95.4131 158.231L93.8591 158.174C93.9091 157.841 94.0201 157.523 94.1911 157.218C94.3601 156.915 94.5821 156.647 94.8601 156.412C95.1351 156.179 95.4611 155.997 95.8371 155.867C96.2101 155.739 96.6301 155.683 97.0961 155.698C97.7451 155.719 98.3201 155.884 98.8211 156.194C99.3211 156.503 99.7091 156.941 99.9871 157.507C100.263 158.072 100.388 158.75 100.363 159.54C100.337 160.333 100.167 161.003 99.8511 161.549C99.5351 162.096 99.1171 162.506 98.5961 162.781C98.0761 163.058 97.4961 163.186 96.8571 163.166C96.4361 163.152 96.0481 163.081 95.6921 162.951C95.3331 162.821 95.0181 162.638 94.7461 162.402C94.4741 162.168 94.2561 161.885 94.0911 161.553C93.9241 161.221 93.8231 160.843 93.7871 160.42ZM90.8591 155.499L89.4951 162.643L86.6761 162.104C86.1371 162.001 85.6951 161.817 85.3501 161.551C85.0031 161.287 84.7631 160.961 84.6301 160.571C84.4941 160.184 84.4711 159.754 84.5621 159.282C84.6521 158.808 84.8321 158.419 85.1021 158.116C85.3721 157.816 85.7181 157.612 86.1411 157.505C86.5621 157.397 87.0461 157.396 87.5951 157.501L89.4821 157.861L89.2501 159.075L87.6081 158.761C87.3191 158.706 87.0721 158.7 86.8661 158.742C86.6611 158.785 86.4961 158.877 86.3731 159.017C86.2471 159.157 86.1621 159.344 86.1171 159.579C86.0721 159.816 86.0811 160.025 86.1461 160.206C86.2081 160.387 86.3271 160.537 86.5041 160.658C86.6781 160.78 86.9111 160.869 87.2021 160.925L88.2201 161.119L89.3481 155.211L90.8591 155.499ZM86.3801 158.013L85.2251 154.423L86.8931 154.742L88.0091 158.324L86.3801 158.013ZM82.4811 153.805L80.0861 160.672L75.4591 159.058L75.8771 157.861L79.0521 158.969L79.6231 157.332L76.6851 156.308L77.1031 155.111L80.0401 156.135L80.6121 154.496L77.4231 153.384L77.8411 152.187L82.4811 153.805ZM73.7461 150.463L75.2051 151.23L69.5991 156.499L67.8451 155.577L69.0091 147.973L70.4681 148.74L69.4701 154.554L69.5201 154.58L73.7461 150.463ZM72.5071 153.042L69.0621 151.231L69.6211 150.168L73.0661 151.979L72.5071 153.042ZM63.9691 151.97L63.2171 152.99L58.4091 149.445L59.1611 148.425L60.9541 149.746L64.5171 144.913L65.7411 145.815L62.1771 150.648L63.9691 151.97ZM54.2901 146.035L59.2551 140.721L60.3781 141.77L55.4131 147.085L54.2901 146.035ZM50.4941 142.074L53.6221 137.191L53.5791 137.14L48.2031 139.315L47.1141 138.003L54.3101 135.286L55.5761 136.81L51.5851 143.388L50.4941 142.074ZM50.9581 131.098L44.7181 134.833L42.2011 130.628L43.2891 129.977L45.0161 132.863L46.5031 131.973L44.9061 129.303L45.9931 128.652L47.5911 131.321L49.0811 130.43L47.3461 127.532L48.4341 126.881L50.9581 131.098ZM45.1101 120.161L38.2171 122.481L37.7261 121.024L43.4171 119.108L42.4231 116.153L43.6241 115.749L45.1101 120.161ZM42.7491 112.872L35.5991 114.201L34.7031 109.383L35.9501 109.151L36.5651 112.458L38.2681 112.141L37.7001 109.082L38.9461 108.851L39.5151 111.909L41.2221 111.592L40.6051 108.271L41.8511 108.04L42.7491 112.872ZM41.3211 103.63L41.3741 105.276L34.0251 102.999L33.9611 101.019L41.1501 98.281L41.2031 99.928L35.6531 101.928L35.6551 101.984L41.3211 103.63ZM38.4671 103.824L38.3431 99.934L39.5431 99.895L39.6671 103.785L38.4671 103.824ZM41.5061 92.868L41.1631 95.423L33.9551 94.457L34.3001 91.88C34.3971 91.155 34.6251 90.551 34.9841 90.066C35.3411 89.581 35.8061 89.234 36.3811 89.024C36.9571 88.813 37.6191 88.757 38.3671 88.857C39.1181 88.958 39.7441 89.186 40.2461 89.543C40.7481 89.897 41.1081 90.357 41.3261 90.923C41.5441 91.488 41.6041 92.136 41.5061 92.868ZM40.0621 93.724L40.1911 92.756C40.2521 92.306 40.2231 91.916 40.1041 91.587C39.9841 91.256 39.7651 90.99 39.4481 90.79C39.1291 90.587 38.7011 90.45 38.1631 90.378C37.6311 90.306 37.1851 90.327 36.8261 90.438C36.4671 90.548 36.1881 90.746 35.9871 91.032C35.7861 91.318 35.6561 91.686 35.5951 92.137L35.4651 93.108L40.0621 93.724ZM40.7681 77.475L41.8951 77.887L40.7571 81.002L39.6301 80.591L40.7681 77.475ZM47.3211 64.034L46.4861 65.346C46.3011 65.262 46.1191 65.215 45.9401 65.205C45.7601 65.194 45.5851 65.217 45.4181 65.273C45.2501 65.329 45.0931 65.417 44.9471 65.537C44.8011 65.655 44.6731 65.802 44.5611 65.978C44.3591 66.295 44.2621 66.622 44.2701 66.958C44.2761 67.293 44.3871 67.621 44.6041 67.941C44.8191 68.26 45.1391 68.555 45.5651 68.826C46.0021 69.104 46.4111 69.273 46.7911 69.333C47.1731 69.39 47.5141 69.349 47.8161 69.21C48.1181 69.071 48.3671 68.847 48.5641 68.537C48.6751 68.363 48.7541 68.188 48.8021 68.011C48.8521 67.832 48.8691 67.656 48.8551 67.485C48.8391 67.312 48.7911 67.147 48.7111 66.989C48.6331 66.83 48.5221 66.683 48.3771 66.549L49.2181 65.241C49.4781 65.454 49.6951 65.712 49.8711 66.014C50.0451 66.313 50.1631 66.642 50.2241 67C50.2841 67.356 50.2741 67.728 50.1951 68.118C50.1141 68.505 49.9491 68.895 49.6981 69.288C49.3501 69.835 48.9151 70.246 48.3931 70.52C47.8721 70.792 47.2971 70.903 46.6691 70.854C46.0421 70.803 45.3951 70.566 44.7281 70.141C44.0591 69.716 43.5701 69.228 43.2601 68.677C42.9511 68.127 42.8111 67.558 42.8401 66.97C42.8661 66.381 43.0511 65.817 43.3941 65.278C43.6211 64.922 43.8801 64.624 44.1731 64.384C44.4681 64.142 44.7861 63.964 45.1271 63.851C45.4671 63.736 45.8221 63.692 46.1911 63.719C46.5621 63.745 46.9391 63.85 47.3211 64.034ZM53.0491 64.024L47.6131 59.192L49.5191 57.048C49.8841 56.637 50.2691 56.352 50.6741 56.192C51.0781 56.029 51.4821 55.991 51.8841 56.076C52.2871 56.158 52.6671 56.358 53.0271 56.678C53.3881 56.999 53.6291 57.352 53.7511 57.739C53.8711 58.125 53.8681 58.526 53.7441 58.945C53.6211 59.361 53.3731 59.778 53.0021 60.196L51.7261 61.632L50.8021 60.811L51.9131 59.56C52.1081 59.341 52.2401 59.132 52.3091 58.933C52.3781 58.735 52.3841 58.547 52.3261 58.369C52.2701 58.19 52.1531 58.02 51.9741 57.862C51.7941 57.701 51.6101 57.602 51.4211 57.565C51.2341 57.525 51.0441 57.551 50.8501 57.641C50.6551 57.728 50.4601 57.882 50.2631 58.103L49.5741 58.878L54.0711 62.875L53.0491 64.024ZM53.1841 58.89L56.8591 59.737L55.7311 61.006L52.0831 60.129L53.1841 58.89ZM58.7961 57.696L54.1141 52.13L57.8651 48.976L58.6811 49.946L56.1071 52.11L57.2231 53.437L59.6031 51.434L60.4191 52.405L58.0391 54.407L59.1561 55.736L61.7411 53.562L62.5571 54.532L58.7961 57.696ZM66.1271 51.888L64.7251 52.754L63.0371 45.248L64.7221 44.206L70.6791 49.074L69.2771 49.941L64.7781 46.126L64.7291 46.155L66.1271 51.888ZM64.5361 49.51L67.8471 47.464L68.4781 48.485L65.1671 50.531L64.5361 49.51ZM69.7961 42.703L69.2991 41.537L74.7941 39.196L75.2911 40.362L73.2421 41.235L75.5961 46.759L74.1981 47.355L71.8441 41.831L69.7961 42.703ZM79.8721 37.379L81.8851 44.367L80.4071 44.793L78.3941 37.804L79.8721 37.379ZM85.2061 36.152L87.8011 41.337L87.8681 41.327L88.7491 35.595L90.4331 35.33L89.0861 42.904L87.1291 43.212L83.5191 36.417L85.2061 36.152ZM94.3991 42.166L94.3801 34.893L99.2811 34.88L99.2841 36.148L95.9211 36.157L95.9261 37.89L99.0371 37.882L99.0401 39.149L95.9291 39.158L95.9341 40.894L99.3111 40.885L99.3141 42.153L94.3991 42.166ZM106.79 42.725L108.314 35.613L109.818 35.935L108.559 41.807L111.608 42.46L111.343 43.7L106.79 42.725ZM114.263 44.415L116.754 37.583L121.358 39.262L120.924 40.453L117.765 39.301L117.171 40.929L120.093 41.994L119.659 43.185L116.737 42.12L116.142 43.751L119.314 44.908L118.88 46.099L114.263 44.415ZM122.943 47.889L121.5 47.094L127.211 41.938L128.946 42.895L127.629 50.474L126.187 49.678L127.301 43.885L127.251 43.858L122.943 47.889ZM124.234 45.336L127.642 47.216L127.062 48.267L123.654 46.388L124.234 45.336ZM132.1 53.545L130.079 51.944L134.594 46.243L136.632 47.857C137.206 48.311 137.609 48.816 137.842 49.372C138.076 49.926 138.137 50.504 138.023 51.105C137.911 51.708 137.62 52.306 137.151 52.898C136.681 53.492 136.165 53.913 135.602 54.162C135.041 54.412 134.462 54.486 133.863 54.384C133.267 54.283 132.679 54.003 132.1 53.545ZM132.102 51.866L132.868 52.472C133.224 52.754 133.574 52.929 133.917 52.995C134.263 53.061 134.604 53.009 134.938 52.839C135.275 52.668 135.612 52.37 135.949 51.945C136.282 51.524 136.493 51.13 136.58 50.765C136.669 50.4 136.642 50.059 136.499 49.74C136.356 49.421 136.106 49.121 135.75 48.839L134.982 48.23L132.102 51.866ZM145.704 60.77L144.776 61.53L142.674 58.964L143.603 58.204L145.704 60.77ZM153.933 73.261L153.231 71.874C153.398 71.757 153.531 71.625 153.631 71.476C153.733 71.326 153.802 71.165 153.839 70.992C153.877 70.819 153.881 70.639 153.853 70.452C153.825 70.267 153.764 70.082 153.67 69.896C153.5 69.56 153.269 69.31 152.976 69.145C152.685 68.979 152.346 68.908 151.96 68.931C151.576 68.953 151.159 69.078 150.709 69.305C150.246 69.54 149.892 69.805 149.647 70.102C149.403 70.4 149.264 70.715 149.229 71.046C149.195 71.376 149.261 71.705 149.426 72.032C149.519 72.216 149.63 72.374 149.758 72.506C149.886 72.639 150.028 72.744 150.183 72.819C150.34 72.894 150.507 72.937 150.682 72.949C150.859 72.963 151.042 72.942 151.232 72.886L151.928 74.277C151.612 74.391 151.279 74.447 150.93 74.444C150.584 74.441 150.241 74.374 149.901 74.244C149.565 74.114 149.25 73.916 148.955 73.648C148.663 73.382 148.412 73.041 148.202 72.625C147.909 72.046 147.778 71.462 147.809 70.873C147.841 70.286 148.038 69.735 148.401 69.22C148.764 68.707 149.299 68.272 150.005 67.915C150.712 67.556 151.381 67.385 152.013 67.4C152.644 67.414 153.205 67.584 153.695 67.909C154.188 68.232 154.579 68.679 154.868 69.25C155.058 69.626 155.182 70.001 155.239 70.375C155.297 70.752 155.287 71.116 155.211 71.468C155.136 71.819 154.993 72.146 154.781 72.45C154.569 72.756 154.287 73.027 153.933 73.261ZM151.019 78.191L157.946 75.976L158.82 78.709C158.988 79.232 159.037 79.709 158.968 80.138C158.902 80.57 158.73 80.937 158.451 81.239C158.176 81.544 157.809 81.769 157.352 81.915C156.892 82.063 156.464 82.09 156.069 81.997C155.676 81.904 155.332 81.698 155.036 81.377C154.74 81.059 154.507 80.634 154.337 80.102L153.752 78.272L154.929 77.896L155.438 79.489C155.528 79.768 155.64 79.988 155.776 80.149C155.912 80.309 156.071 80.41 156.253 80.451C156.436 80.494 156.641 80.48 156.869 80.407C157.099 80.333 157.278 80.225 157.407 80.082C157.536 79.942 157.611 79.765 157.632 79.552C157.656 79.34 157.623 79.093 157.533 78.811L157.217 77.824L151.488 79.656L151.019 78.191ZM155.368 80.924L152.766 83.654L152.249 82.037L154.863 79.345L155.368 80.924ZM153.535 86.36L160.711 85.179L161.506 90.015L160.255 90.22L159.709 86.902L157.999 87.183L158.504 90.253L157.253 90.459L156.749 87.389L155.035 87.671L155.583 91.003L154.332 91.209L153.535 86.36ZM154.781 95.629L154.753 93.981L162.068 96.367L162.102 98.348L154.873 100.979L154.845 99.332L160.424 97.414L160.423 97.358L154.781 95.629ZM157.638 95.477L157.704 99.368L156.504 99.389L156.438 95.497L157.638 95.477ZM160.8 103.476L162.057 103.645L161.262 109.565L160.006 109.396L160.302 107.189L154.35 106.39L154.553 104.884L160.504 105.683L160.8 103.476ZM160.245 114.833L153.202 113.02L153.585 111.531L160.628 113.344L160.245 114.833ZM158.583 120.066L152.799 119.656L152.774 119.719L157.257 123.399L156.626 124.982L150.796 119.964L151.529 118.123L159.215 118.479L158.583 120.066ZM148.723 124.91L154.986 128.606L152.496 132.827L151.404 132.183L153.113 129.286L151.621 128.406L150.04 131.085L148.948 130.44L150.529 127.761L149.033 126.879L147.317 129.787L146.225 129.143L148.723 124.91ZM141.907 135.272L147.24 140.217L146.194 141.344L141.791 137.262L139.671 139.548L138.741 138.686L141.907 135.272ZM136.635 140.832L141.242 146.459L137.45 149.563L136.646 148.582L139.249 146.452L138.151 145.111L135.744 147.082L134.941 146.101L137.348 144.13L136.248 142.787L133.635 144.926L132.832 143.945L136.635 140.832ZM129.221 146.531L130.64 145.693L132.177 153.231L130.471 154.239L124.614 149.253L126.032 148.415L130.455 152.319L130.504 152.29L129.221 146.531ZM130.764 148.94L127.413 150.919L126.802 149.886L130.153 147.906L130.764 148.94ZM119.693 151.534L122.102 150.614L124.699 157.407L122.271 158.335C121.587 158.596 120.947 158.685 120.35 158.602C119.754 158.521 119.226 158.277 118.767 157.872C118.306 157.468 117.94 156.914 117.671 156.208C117.4 155.501 117.302 154.841 117.375 154.23C117.446 153.62 117.678 153.084 118.072 152.622C118.463 152.161 119.004 151.798 119.693 151.534ZM121.136 152.393L120.224 152.742C119.799 152.904 119.471 153.116 119.238 153.377C119.005 153.641 118.876 153.961 118.852 154.335C118.826 154.712 118.91 155.154 119.104 155.66C119.296 156.162 119.527 156.544 119.796 156.806C120.064 157.069 120.372 157.22 120.719 157.259C121.066 157.299 121.452 157.238 121.876 157.075L122.792 156.725L121.136 152.393ZM106.606 159.593L106.409 158.409L109.681 157.864L109.878 159.048L106.606 159.593Z" fill="white"/>
</g>
<defs>
<clipPath id="clip0_3033_23">
<rect width="196" height="193" fill="white"/>
</clipPath>
</defs>
</svg>
