<svg width="93" height="80" viewBox="0 0 93 80" fill="none" xmlns="http://www.w3.org/2000/svg">
<path fill-rule="evenodd" clip-rule="evenodd" d="M30.927 37.4245C29.7254 37.4245 28.5238 36.9677 27.6033 36.0613C26.7179 35.1759 26.2261 34.0025 26.2261 32.7517C26.2261 31.5009 26.7179 30.3205 27.6033 29.4421C29.4373 27.6222 32.4167 27.6222 34.2507 29.4421C35.1361 30.3205 35.6279 31.5009 35.6279 32.7517C35.6279 34.0025 35.1361 35.1759 34.2507 36.0613C33.3302 36.9677 32.1286 37.4245 30.927 37.4245ZM30.927 30.1799C30.2595 30.1799 29.5989 30.4329 29.093 30.9318C28.6011 31.4166 28.3341 32.0631 28.3341 32.7517C28.3341 33.4333 28.6011 34.0797 29.093 34.5646C30.1049 35.5694 31.7491 35.5694 32.761 34.5646C33.2459 34.0797 33.5199 33.4333 33.5199 32.7517C33.5199 32.0631 33.2459 31.4166 32.761 30.9318C32.2551 30.4329 31.5945 30.1799 30.927 30.1799Z" fill="#313131"/>
<path d="M68.9205 80H23.675C23.2956 80 22.9442 79.7892 22.7615 79.4589C22.5718 79.1287 22.5788 78.7211 22.7756 78.3979L25.5231 73.8516L58.2187 20.462C58.5279 19.9631 59.1744 19.8156 59.6662 20.1177C60.1651 20.4199 60.3197 21.0663 60.0176 21.5652L27.3219 74.9478L25.5441 77.892H68.3162L90.3241 39.9964L68.3162 2.10804H24.2864L2.27141 39.9964L21.1524 72.5024C21.4475 73.0083 21.2789 73.6478 20.773 73.9429C20.267 74.238 19.6276 74.0623 19.3325 73.5634L0.142293 40.5305C-0.0474308 40.2002 -0.0474308 39.7927 0.142293 39.4694L22.7686 0.519976C22.9513 0.196743 23.3026 0 23.675 0H68.9205C69.3 0 69.6443 0.196743 69.834 0.519976L92.4603 39.4694C92.65 39.7927 92.65 40.2002 92.4603 40.5305L69.834 79.473C69.6443 79.7962 69.3 80 68.9205 80Z" fill="#313131"/>
<path d="M40.9329 51.7595C40.3567 51.7595 39.8859 51.2886 39.8789 50.7124C39.8789 50.1292 40.3427 49.6514 40.9259 49.6514L85.539 49.272C85.539 49.272 85.5414 49.272 85.546 49.272C86.1222 49.272 86.593 49.7357 86.6001 50.319C86.6071 50.9022 86.1363 51.373 85.5531 51.38L40.947 51.7595C40.9423 51.7595 40.9376 51.7595 40.9329 51.7595Z" fill="#313131"/>
</svg>
