<svg width="92" height="94" viewBox="0 0 92 94" fill="none" xmlns="http://www.w3.org/2000/svg">
<path d="M78.5751 14.7373L50.9356 40.2288L62.3863 2.78814L45.4077 0L44.2232 38.2373L25.6652 4.38136L13.03 14.7373L37.5107 41.4237L2.3691 30.6695L0 47.7966C12.6352 48.1949 37.6687 49.0712 36.721 49.3898C35.7734 49.7085 14.7411 61.4718 4.34335 67.3136L14.2146 81.2542L41.4592 54.9661L30.4034 91.2119L46.9871 94L47.7768 56.161L65.9399 89.6186L78.97 80.0593L53.6996 52.178L89.6309 63.7288L92 47L54.8841 45.8051L88.0515 27.8814L78.5751 14.7373Z" fill="black"/>
</svg>
