<svg width="85" height="80" viewBox="0 0 85 80" fill="none" xmlns="http://www.w3.org/2000/svg">
<path fill-rule="evenodd" clip-rule="evenodd" d="M30.8635 80.0004C13.846 80.0004 0 66.103 0 49.0194C0 31.9358 13.846 18.0383 30.8635 18.0383C47.8811 18.0383 61.727 31.9358 61.727 49.0194C61.727 66.103 47.8811 80.0004 30.8635 80.0004ZM30.8635 20.2408C15.0574 20.2408 2.20244 33.1471 2.20244 49.0194C2.20244 64.8843 15.0574 77.798 30.8635 77.798C46.6624 77.798 59.5246 64.8843 59.5246 49.0194C59.5246 33.1471 46.6624 20.2408 30.8635 20.2408Z" fill="#313131"/>
<path d="M58.8791 61.4775C58.3579 61.4775 57.8954 61.1031 57.7999 60.5745C57.6898 59.9725 58.0862 59.3999 58.6809 59.2898C72.2846 56.7937 82.1516 44.8858 82.1516 30.981C82.1516 15.1161 69.2966 2.20244 53.4904 2.20244C37.6916 2.20244 24.8294 15.1161 24.8294 30.981C24.8294 37.838 27.2741 44.4747 31.701 49.6724C32.0901 50.135 32.0387 50.8324 31.5762 51.2288C31.1137 51.6179 30.4163 51.5665 30.0198 51.104C25.2552 45.5025 22.627 38.3592 22.627 30.981C22.627 13.8974 36.4729 0 53.4904 0C70.508 0 84.354 13.8974 84.354 30.981C84.354 45.9503 73.7236 58.7685 59.0773 61.4555C59.0137 61.4702 58.9476 61.4775 58.8791 61.4775Z" fill="#313131"/>
<path fill-rule="evenodd" clip-rule="evenodd" d="M35.5691 57.807C33.675 57.807 32.126 56.258 32.126 54.3492C32.126 52.4477 33.675 50.8987 35.5691 50.8987C37.4706 50.8987 39.0123 52.4477 39.0123 54.3492C39.0123 56.258 37.4706 57.807 35.5691 57.807ZM35.5691 53.1011C34.8864 53.1011 34.3284 53.6591 34.3284 54.3492C34.3284 55.0393 34.8864 55.6046 35.5691 55.6046C36.2519 55.6046 36.8098 55.0393 36.8098 54.3492C36.8098 53.6591 36.2519 53.1011 35.5691 53.1011Z" fill="#313131"/>
</svg>
