<svg width="161" height="36" viewBox="0 0 161 36" fill="none" xmlns="http://www.w3.org/2000/svg">
<path d="M35.9622 34V11.84H41.6422V34H35.9622ZM38.8422 9.16C37.7222 9.16 36.7889 8.82666 36.0422 8.16C35.2955 7.46666 34.9222 6.61333 34.9222 5.6C34.9222 4.58667 35.2955 3.73333 36.0422 3.04C36.7889 2.34667 37.7222 2 38.8422 2C39.9622 2 40.8955 2.34667 41.6422 3.04C42.3889 3.73333 42.7622 4.58667 42.7622 5.6C42.7622 6.61333 42.3889 7.46666 41.6422 8.16C40.8955 8.82666 39.9622 9.16 38.8422 9.16ZM53.4131 34.28C51.4665 34.28 49.7465 33.8 48.2531 32.84C46.7598 31.8533 45.5865 30.5067 44.7331 28.8C43.8798 27.0667 43.4531 25.1067 43.4531 22.92C43.4531 20.7067 43.8798 18.7467 44.7331 17.04C45.5865 15.3333 46.7598 14 48.2531 13.04C49.7465 12.0533 51.4665 11.56 53.4131 11.56C55.1731 11.56 56.7065 12.0133 58.0131 12.92C59.3198 13.8267 60.2665 15.08 60.8531 16.68V4.4H66.5331V34H63.8131C62.9065 34 62.1865 33.7333 61.6531 33.2C61.1198 32.64 60.8531 31.9067 60.8531 31V29.12C60.2665 30.7467 59.3198 32.0133 58.0131 32.92C56.7065 33.8267 55.1731 34.28 53.4131 34.28ZM55.0131 29.36C56.0531 29.36 57.0131 29.1067 57.8931 28.6C58.7731 28.0933 59.4798 27.36 60.0131 26.4C60.5731 25.44 60.8531 24.28 60.8531 22.92C60.8531 21.5333 60.5731 20.36 60.0131 19.4C59.4798 18.44 58.7731 17.72 57.8931 17.24C57.0131 16.7333 56.0531 16.48 55.0131 16.48C54.0265 16.48 53.0798 16.7333 52.1731 17.24C51.2931 17.72 50.5731 18.44 50.0131 19.4C49.4798 20.36 49.2131 21.5333 49.2131 22.92C49.2131 24.28 49.4798 25.44 50.0131 26.4C50.5731 27.36 51.2931 28.0933 52.1731 28.6C53.0798 29.1067 54.0265 29.36 55.0131 29.36ZM79.5225 34.28C77.3892 34.28 75.4692 33.8133 73.7625 32.88C72.0825 31.9467 70.7358 30.6267 69.7225 28.92C68.7358 27.2133 68.2425 25.2 68.2425 22.88C68.2425 20.56 68.7492 18.56 69.7625 16.88C70.7758 15.1733 72.1492 13.8667 73.8825 12.96C75.6158 12.0267 77.5492 11.56 79.6825 11.56C81.8158 11.56 83.7358 12.0267 85.4425 12.96C87.1758 13.8667 88.5492 15.1733 89.5625 16.88C90.5758 18.56 91.0825 20.56 91.0825 22.88C91.0825 25.2 90.5625 27.2133 89.5225 28.92C88.5092 30.6267 87.1225 31.9467 85.3625 32.88C83.6292 33.8133 81.6825 34.28 79.5225 34.28ZM79.5225 29.36C80.5092 29.36 81.4425 29.1333 82.3225 28.68C83.2025 28.2 83.9225 27.48 84.4825 26.52C85.0425 25.5333 85.3225 24.32 85.3225 22.88C85.3225 21.44 85.0425 20.24 84.4825 19.28C83.9492 18.32 83.2425 17.6133 82.3625 17.16C81.5092 16.68 80.5892 16.44 79.6025 16.44C78.6158 16.44 77.6958 16.68 76.8425 17.16C76.0158 17.6133 75.3358 18.32 74.8025 19.28C74.2692 20.24 74.0025 21.44 74.0025 22.88C74.0025 24.32 74.2558 25.5333 74.7625 26.52C75.2692 27.48 75.9358 28.2 76.7625 28.68C77.6158 29.1333 78.5358 29.36 79.5225 29.36ZM101.271 34.28C99.1913 34.28 97.5379 33.6667 96.3113 32.44C95.1113 31.1867 94.5113 29.4133 94.5113 27.12V16.44H91.0713V11.84H105.111V16.44H100.231V27.32C100.231 28.0133 100.431 28.5333 100.831 28.88C101.231 29.2267 101.685 29.4 102.191 29.4C102.511 29.4 102.805 29.3467 103.071 29.24C103.365 29.1333 103.645 28.9733 103.911 28.76L105.911 32.64C105.218 33.2 104.498 33.6133 103.751 33.88C103.005 34.1467 102.178 34.28 101.271 34.28ZM92.7513 13.6V11.84C93.3379 11.84 93.7913 11.6667 94.1113 11.32C94.4579 10.9733 94.6313 10.5067 94.6313 9.92V6.36H100.231V9C100.231 9.4 100.125 9.8 99.9113 10.2C99.7246 10.6 99.4579 10.9467 99.1113 11.24C98.7646 11.5333 98.3513 11.7333 97.8713 11.84L92.7513 13.6ZM107.542 34V11.84H113.222V34H107.542ZM110.422 9.16C109.302 9.16 108.368 8.82666 107.622 8.16C106.875 7.46666 106.502 6.61333 106.502 5.6C106.502 4.58667 106.875 3.73333 107.622 3.04C108.368 2.34667 109.302 2 110.422 2C111.542 2 112.475 2.34667 113.222 3.04C113.968 3.73333 114.342 4.58667 114.342 5.6C114.342 6.61333 113.968 7.46666 113.222 8.16C112.475 8.82666 111.542 9.16 110.422 9.16ZM120.153 11.84L125.713 28.8L131.273 11.84H137.313L129.113 34H122.233L114.113 11.84H120.153ZM148.657 34.28C146.95 34.28 145.364 34.0133 143.897 33.48C142.457 32.9467 141.19 32.1867 140.097 31.2C139.03 30.2133 138.19 29.04 137.577 27.68C136.99 26.2933 136.697 24.76 136.697 23.08C136.697 21.3467 137.004 19.7733 137.617 18.36C138.23 16.9467 139.084 15.7333 140.177 14.72C141.27 13.7067 142.524 12.9333 143.937 12.4C145.35 11.84 146.844 11.56 148.417 11.56C149.75 11.56 151.004 11.7467 152.177 12.12C153.35 12.4667 154.377 12.9733 155.257 13.64C156.164 14.28 156.857 15.0533 157.337 15.96C157.844 16.8667 158.097 17.8533 158.097 18.92C158.097 20.3067 157.697 21.4667 156.897 22.4C156.097 23.3333 155.03 24.08 153.697 24.64C152.39 25.1733 150.95 25.5467 149.377 25.76C147.804 25.9467 146.257 26.0133 144.737 25.96C144.497 25.9333 144.217 25.92 143.897 25.92C143.577 25.92 143.284 25.92 143.017 25.92C142.777 25.8933 142.617 25.88 142.537 25.88C142.697 26.6 143.07 27.2667 143.657 27.88C144.27 28.4933 145.017 28.9733 145.897 29.32C146.777 29.64 147.724 29.8 148.737 29.8C149.617 29.8 150.47 29.6533 151.297 29.36C152.124 29.0667 152.884 28.6667 153.577 28.16C154.297 27.6267 154.884 27.0533 155.337 26.44L159.217 29.36C158.364 30.48 157.377 31.4133 156.257 32.16C155.137 32.88 153.937 33.4133 152.657 33.76C151.377 34.1067 150.044 34.28 148.657 34.28ZM144.937 21.92C145.817 21.92 146.697 21.88 147.577 21.8C148.484 21.72 149.31 21.5733 150.057 21.36C150.83 21.12 151.444 20.8 151.897 20.4C152.377 19.9733 152.617 19.44 152.617 18.8C152.617 18.2667 152.43 17.8 152.057 17.4C151.71 16.9733 151.23 16.64 150.617 16.4C150.03 16.1333 149.35 16 148.577 16C147.35 16 146.257 16.28 145.297 16.84C144.364 17.4 143.63 18.1333 143.097 19.04C142.564 19.92 142.27 20.84 142.217 21.8C142.537 21.8267 142.937 21.8533 143.417 21.88C143.897 21.9067 144.404 21.92 144.937 21.92Z" fill="white"/>
<path d="M25.2402 5.0943L0.108122 29.8868V11.5471L7.00885 18L10.0354 14.6548L0 5.29867V0.679199L12.5841 13.104L25.2402 0.679199V5.0943Z" fill="white"/>
<path d="M25.2415 10.8679L0.109375 36H25.2415V10.8679Z" fill="#FF7722"/>
<ellipse cx="12.6738" cy="3.05661" rx="3.0566" ry="3.05661" fill="white"/>
</svg>
