<svg width="75" height="80" viewBox="0 0 75 80" fill="none" xmlns="http://www.w3.org/2000/svg">
<path fill-rule="evenodd" clip-rule="evenodd" d="M24.9059 80C18.5365 80 12.1611 77.5716 7.31023 72.7147C-1.18028 64.2242 -2.42164 50.931 4.35752 41.1028C4.64074 40.693 5.20719 40.5905 5.61695 40.8738C6.02671 41.157 6.12916 41.7234 5.84594 42.1332C-0.433066 51.2443 0.717877 63.5673 8.58772 71.4372C17.5663 80.4158 32.1551 80.4459 41.0976 71.5035C47.3042 65.2968 49.1843 56.3785 46.7559 48.4966H26.6715C26.4305 48.4966 26.2015 48.4001 26.0328 48.2254C25.864 48.0566 25.7676 47.8277 25.7676 47.5866L25.852 31.4071C25.858 31.154 25.9604 30.9189 26.1473 30.7442C26.3341 30.5754 26.5811 30.4911 26.8282 30.5092C32.7155 30.9853 38.0665 33.4739 42.3088 37.7162C44.93 40.3435 46.8463 43.4107 48.0575 46.6888H72.4564V1.80777H27.5754V14.8538C27.5754 15.354 27.1717 15.7577 26.6715 15.7577C26.1714 15.7577 25.7676 15.354 25.7676 14.8538V0.903887C25.7676 0.409762 26.1714 0 26.6715 0H73.3603C73.8544 0 74.2642 0.409762 74.2642 0.903887V47.5927C74.2642 48.0868 73.8544 48.4966 73.3603 48.4966H48.642C51.0162 56.8605 48.9312 66.2248 42.375 72.781C37.5603 77.5957 31.2392 80 24.9059 80ZM27.5814 46.6888H46.1171C44.9903 43.8867 43.297 41.2594 41.0252 38.9937C37.3314 35.2938 32.7215 33.034 27.6597 32.4134L27.5814 46.6888Z" fill="#313131"/>
<path fill-rule="evenodd" clip-rule="evenodd" d="M26.744 26.5021C24.7494 26.5021 23.1284 24.8811 23.1284 22.8865C23.1284 20.892 24.7494 19.271 26.744 19.271C28.7385 19.271 30.3595 20.892 30.3595 22.8865C30.3595 24.8811 28.7385 26.5021 26.744 26.5021ZM26.744 21.0788C25.7497 21.0788 24.9362 21.8923 24.9362 22.8865C24.9362 23.8808 25.7497 24.6943 26.744 24.6943C27.7443 24.6943 28.5517 23.8808 28.5517 22.8865C28.5517 21.8923 27.7443 21.0788 26.744 21.0788Z" fill="#313131"/>
</svg>
