<svg width="102" height="80" viewBox="0 0 102 80" fill="none" xmlns="http://www.w3.org/2000/svg">
<path fill-rule="evenodd" clip-rule="evenodd" d="M40.0068 80C39.6966 80 39.4019 79.8759 39.1771 79.6588L0.341211 40.823C0.124078 40.6059 0 40.3112 0 40.001C0 39.6908 0.124078 39.3961 0.341211 39.179L39.1771 0.343148C39.6346 -0.114383 40.3713 -0.114383 40.8288 0.343148L79.6646 39.179C80.1144 39.6288 80.1144 40.3655 79.6646 40.823L40.8288 79.6588C40.6039 79.8759 40.3092 80 40.0068 80ZM2.81498 40.001L40.0068 77.1928L77.1909 40.001L40.0068 2.80916L2.81498 40.001Z" fill="#313131"/>
<path d="M70.0954 71.2524C69.8007 71.2524 69.4983 71.1438 69.2734 70.9112L59.1767 60.8145C58.7192 60.3647 58.7192 59.628 59.1767 59.1705C59.6265 58.7129 60.3632 58.7129 60.8207 59.1705L70.0954 68.4452L98.5398 40.0007L70.0954 11.5563L40.8289 40.8227C40.3714 41.2803 39.6347 41.2803 39.1772 40.8227C38.7274 40.3652 38.7274 39.6285 39.1772 39.1787L69.2734 9.09022C69.7232 8.63269 70.4599 8.63269 70.9174 9.09022L101.006 39.1787C101.463 39.6285 101.463 40.3652 101.006 40.8227L70.9174 70.9112C70.6925 71.1438 70.3901 71.2524 70.0954 71.2524Z" fill="#313131"/>
<path fill-rule="evenodd" clip-rule="evenodd" d="M32.5313 52.1294C29.9644 52.1294 27.8784 50.0434 27.8784 47.4766C27.8784 44.9098 29.9644 42.8237 32.5313 42.8237C35.0903 42.8237 37.1841 44.9098 37.1841 47.4766C37.1841 50.0434 35.0903 52.1294 32.5313 52.1294ZM32.5313 45.1502C31.244 45.1502 30.2048 46.1893 30.2048 47.4766C30.2048 48.7561 31.244 49.803 32.5313 49.803C33.8108 49.803 34.8577 48.7561 34.8577 47.4766C34.8577 46.1893 33.8108 45.1502 32.5313 45.1502Z" fill="#313131"/>
</svg>
