<svg width="134" height="25" viewBox="0 0 134 25" fill="none" xmlns="http://www.w3.org/2000/svg">
<path d="M11.9294 1.75623C12.109 1.20344 12.891 1.20344 13.0706 1.75623L15.1717 8.2227C15.252 8.46991 15.4824 8.63729 15.7424 8.63729H22.5416C23.1228 8.63729 23.3645 9.38106 22.8943 9.7227L17.3936 13.7192C17.1833 13.872 17.0953 14.1428 17.1756 14.39L19.2767 20.8565C19.4563 21.4093 18.8236 21.8689 18.3534 21.5273L12.8527 17.5308C12.6424 17.378 12.3576 17.378 12.1473 17.5308L6.64662 21.5273C6.17639 21.8689 5.54371 21.4093 5.72332 20.8565L7.8244 14.39C7.90473 14.1428 7.81673 13.872 7.60644 13.7192L2.10573 9.7227C1.6355 9.38106 1.87717 8.63729 2.4584 8.63729H9.25765C9.51759 8.63729 9.74796 8.46991 9.82828 8.2227L11.9294 1.75623Z" fill="#FFA600"/>
<path d="M39.0129 1.75623C39.1925 1.20344 39.9745 1.20344 40.1541 1.75623L42.2552 8.2227C42.3355 8.46991 42.5659 8.63729 42.8258 8.63729H49.6251C50.2063 8.63729 50.448 9.38106 49.9778 9.7227L44.4771 13.7192C44.2668 13.872 44.1788 14.1428 44.2591 14.39L46.3602 20.8565C46.5398 21.4093 45.9071 21.8689 45.4369 21.5273L39.9362 17.5308C39.7259 17.378 39.4411 17.378 39.2308 17.5308L33.7301 21.5273C33.2599 21.8689 32.6272 21.4093 32.8068 20.8565L34.9079 14.39C34.9882 14.1428 34.9002 13.872 34.6899 13.7192L29.1892 9.7227C28.719 9.38106 28.9607 8.63729 29.5419 8.63729H36.3411C36.6011 8.63729 36.8315 8.46991 36.9118 8.2227L39.0129 1.75623Z" fill="#FFA600"/>
<path d="M66.0959 1.75623C66.2755 1.20344 67.0575 1.20344 67.2371 1.75623L69.3382 8.2227C69.4185 8.46991 69.6489 8.63729 69.9089 8.63729H76.7081C77.2893 8.63729 77.531 9.38106 77.0608 9.7227L71.5601 13.7192C71.3498 13.872 71.2618 14.1428 71.3421 14.39L73.4432 20.8565C73.6228 21.4093 72.9901 21.8689 72.5199 21.5273L67.0192 17.5308C66.8089 17.378 66.5241 17.378 66.3138 17.5308L60.8131 21.5273C60.3429 21.8689 59.7102 21.4093 59.8898 20.8565L61.9909 14.39C62.0712 14.1428 61.9832 13.872 61.7729 13.7192L56.2722 9.7227C55.802 9.38106 56.0437 8.63729 56.6249 8.63729H63.4242C63.6841 8.63729 63.9145 8.46991 63.9948 8.2227L66.0959 1.75623Z" fill="#FFA600"/>
<path d="M93.1794 1.75623C93.359 1.20344 94.141 1.20344 94.3206 1.75623L96.4217 8.2227C96.502 8.46991 96.7324 8.63729 96.9924 8.63729H103.792C104.373 8.63729 104.614 9.38106 104.144 9.7227L98.6436 13.7192C98.4333 13.872 98.3453 14.1428 98.4256 14.39L100.527 20.8565C100.706 21.4093 100.074 21.8689 99.6034 21.5273L94.1027 17.5308C93.8924 17.378 93.6076 17.378 93.3973 17.5308L87.8966 21.5273C87.4264 21.8689 86.7937 21.4093 86.9733 20.8565L89.0744 14.39C89.1547 14.1428 89.0667 13.872 88.8564 13.7192L83.3557 9.7227C82.8855 9.38106 83.1272 8.63729 83.7084 8.63729H90.5076C90.7676 8.63729 90.998 8.46991 91.0783 8.2227L93.1794 1.75623Z" fill="#FFA600"/>
<path d="M120.263 1.75623C120.442 1.20344 121.225 1.20344 121.404 1.75623L123.505 8.2227C123.586 8.46991 123.816 8.63729 124.076 8.63729H130.875C131.456 8.63729 131.698 9.38106 131.228 9.7227L125.727 13.7192C125.517 13.872 125.429 14.1428 125.509 14.39L127.61 20.8565C127.79 21.4093 127.157 21.8689 126.687 21.5273L121.186 17.5308C120.976 17.378 120.691 17.378 120.481 17.5308L114.98 21.5273C114.51 21.8689 113.877 21.4093 114.057 20.8565L116.158 14.39C116.238 14.1428 116.15 13.872 115.94 13.7192L110.439 9.7227C109.969 9.38106 110.211 8.63729 110.792 8.63729H117.591C117.851 8.63729 118.081 8.46991 118.162 8.2227L120.263 1.75623Z" fill="#FFA600"/>
</svg>
