<svg width="11" height="10" viewBox="0 0 11 10" fill="none" xmlns="http://www.w3.org/2000/svg">
<path d="M4.79818 0.207217C4.88798 -0.0691762 5.27901 -0.0691764 5.36881 0.207217L6.36323 3.2677C6.40339 3.39131 6.51858 3.475 6.64854 3.475H9.86653C10.1571 3.475 10.278 3.84688 10.0429 4.0177L7.43946 5.90919C7.33431 5.98558 7.29032 6.12099 7.33048 6.2446L8.32489 9.30509C8.4147 9.58148 8.09835 9.81132 7.86324 9.6405L5.25983 7.74901C5.15469 7.67262 5.01231 7.67262 4.90716 7.74901L2.30375 9.6405C2.06864 9.81132 1.7523 9.58148 1.8421 9.30509L2.83651 6.2446C2.87668 6.12099 2.83268 5.98558 2.72753 5.90919L0.124127 4.0177C-0.110987 3.84688 0.00984514 3.475 0.300462 3.475H3.51845C3.64842 3.475 3.7636 3.39131 3.80377 3.2677L4.79818 0.207217Z" fill="#FFA600"/>
</svg>
